<?xml version="1.0" encoding="UTF-8"?>
<svg id="Layer_1" data-name="Layer 1" xmlns="http://www.w3.org/2000/svg" viewBox="0 0 128 128">
  <defs>
    <style>
      .cls-1 {
        fill: #9146ff;
        stroke-width: 0px;
      }
    </style>
  </defs>
  <path class="cls-1" d="m110.12,77.63c-2.23.93-4.35,3.03-7.06,2.79-2.38-.21-4.16-2.14-4.75-4.26-.67-2.27-.14-4.65.32-6.98.38-2.21,1.11-4.54,1.37-6.68.38-3.01-.77-5.97-.82-8.97.13-3.07.85-6.13,2.46-8.79,1.45-2.28,3.53-4.48,4.59-6.89.37-.92.91-1.84.41-2.36-1.42-.41-3.91,2.48-5.07,3.3-3.58,3.07-9.76,4.04-14.44,3.38-3-.53-5.16-1.94-8.09-2.43-1.17-.18-2.36-.19-3.53-.37-5.8-.64-6.47-6.56-1.28-8.8,1.86-.86,4.13-1.2,6.22-1.42,4.99-.33,9.87-1.81,13.13-5.54,1.46-1.6,4.69-6.73,2.35-7.52-2.57-.49-5.64,1.38-8.16,2.12-2.63.87-5.41,1.17-7.88,1.94-4.14,1.29-7.68,3.46-11.68,5.14-4.59,1.89-9.5,2.58-12.95,6.06-3.48,3.27-8.3,7.77-11.44,1.59-.9-1.65-1.33-4.02-3.43-4.63-2.81-.55-5.59,1.87-7.23,3.89-2.96,3.7-1.61,6.54-1.78,10.6-.29,3.44-3.95,5.4-7.2,6.02-1.92.46-6.65.92-7.49,2.36-.2.44.03,1.18.22,1.7.41,1.14.82,2.35,1.08,3.55.31,1.39-.09,3.16.55,4.37.82,1.56,3,1.98,3.78,3.68.31.67.36,1.42.4,2.16.59,10.61.27,21.86,5.63,31.03,4.88,8.33,13.01,13.24,22.67,13.34,24.08.23,34.34-6.14,39.7-11.08,1.78-1.64,3.74-3.73,5.76-5.04,1.23-.79,2.6-.94,3.72-1.96s1.7-2.41,2.78-3.43c3.21-3.04,7.19-5.59,8.3-10.08.31-1.07.18-2.28-1.14-1.78Zm-51.09,23.45c-15.11,0-27.37-11.6-27.37-25.91s12.25-25.91,27.37-25.91,27.37,11.6,27.37,25.91-12.25,25.91-27.37,25.91Zm16.8-12.92h-16.81l-8.4,7.96v-7.96h-8.4v-29.84h33.61v29.84Z"/>
</svg>